<?xml version="1.0" encoding="iso-8859-1"?>
<!-- Generator: Adobe Illustrator 19.0.0, SVG Export Plug-In . SVG Version: 6.00 Build 0)  -->
<svg version="1.1" fill="#d4d4d4" id="Capa_1" xmlns="http://www.w3.org/2000/svg" xmlns:xlink="http://www.w3.org/1999/xlink" x="0px" y="0px"
	 viewBox="0 0 512 512" style="enable-background:new 0 0 512 512;" xml:space="preserve">
<g>
	<g>
		<path d="M494.824,67.907h-84.212C365.599,29.128,308.261,7.805,248.697,7.805c-66.295,0-128.622,25.817-175.501,72.695
			c-45.1,45.1-70.694,104.504-72.571,167.979H0v15.042h0.625C2.502,326.997,28.096,386.4,73.196,431.501
			c46.878,46.878,109.205,72.695,175.501,72.695s128.622-25.817,175.501-72.695c46.878-46.877,72.695-109.206,72.695-175.501
			c0-15.177-1.396-30.322-4.117-45.146h2.051c9.471,0,17.175-7.706,17.175-17.175V85.082C512,75.613,504.294,67.907,494.824,67.907z
			 M83.833,91.136c24.072-24.072,52.488-42.216,83.472-53.735c-14.754,11.566-28.393,26.38-40.498,44.189
			c-7.086,10.425-13.456,21.616-19.084,33.435c-11.819,5.629-23.009,11.999-33.435,19.084
			c-17.81,12.105-32.622,25.744-44.189,40.498C41.617,143.623,59.76,115.208,83.833,91.136z M98.491,136.743
			c-12.829,33.987-20.007,72.075-20.813,111.736H15.819C19.007,203.739,50.475,163.881,98.491,136.743z M77.678,263.521
			c0.806,39.661,7.984,77.749,20.813,111.736c-48.014-27.138-79.484-66.996-82.672-111.736H77.678z M83.833,420.864
			c-24.072-24.072-42.216-52.487-53.736-83.471c11.566,14.754,26.38,28.394,44.189,40.498c10.425,7.086,21.616,13.456,33.435,19.084
			c5.629,11.819,11.999,23.009,19.084,33.435c12.105,17.81,25.744,32.622,40.498,44.189
			C136.32,463.08,107.905,444.936,83.833,420.864z M241.175,488.877c-44.74-3.188-84.598-34.656-111.736-82.672
			c33.987,12.829,72.075,20.007,111.736,20.813V488.877z M241.175,411.973c-45.084-0.962-86.978-10.527-122.126-26.326
			c-15.798-35.148-25.364-77.042-26.326-122.126h148.452V411.973z M241.175,248.479H92.724
			c0.962-45.084,10.526-86.978,26.326-122.125c35.148-15.799,77.042-25.365,122.126-26.327V248.479z M241.175,84.981
			c-39.661,0.806-77.749,7.983-111.736,20.813c27.138-48.014,66.996-79.484,111.736-82.672V84.981z M386.48,67.907h-25.985
			c-9.427-11.797-19.649-21.974-30.468-30.428C350.068,44.935,369.074,55.144,386.48,67.907z M256.218,23.127
			c30.483,2.211,59.864,17.82,84.504,44.78H295.89c-9.469,0-17.175,7.706-17.175,17.175v1.053c-7.446-0.616-14.967-1-22.497-1.155
			V23.127z M256.218,100.026c7.535,0.161,15.058,0.566,22.497,1.207v92.445c0,9.471,7.706,17.175,17.175,17.175h105.924
			c1.629,12.352,2.584,24.957,2.856,37.625H256.218V100.026z M256.218,263.521h148.452c-0.962,45.084-10.526,86.978-26.326,122.125
			c-35.148,15.799-77.042,25.365-122.126,26.327V263.521z M256.218,427.019c39.661-0.806,77.749-7.984,111.736-20.813
			c-27.138,48.014-66.996,79.484-111.736,82.672V427.019z M413.56,420.864c-24.072,24.072-52.488,42.216-83.472,53.734
			c14.754-11.566,28.393-26.38,40.498-44.189c7.086-10.425,13.456-21.616,19.084-33.435c11.819-5.629,23.009-11.999,33.435-19.084
			c17.81-12.105,32.622-25.744,44.189-40.498C455.776,368.377,437.633,396.791,413.56,420.864z M398.902,375.257
			c12.83-33.987,20.007-72.075,20.813-111.736h61.858C478.386,308.261,446.918,348.119,398.902,375.257z M416.98,210.854h54.893
			c5.537,12.207,8.783,24.823,9.698,37.625h-61.854C419.456,235.824,418.539,223.225,416.98,210.854z M496.827,193.678h-0.001
			c0,1.104-0.897,2.002-2.002,2.002H295.891c-1.104,0-2.002-0.898-2.002-2.002V85.082c0-1.104,0.898-2.002,2.002-2.002h198.934
			c1.104,0,2.002,0.898,2.002,2.002V193.678z"/>
	</g>
</g>
<g>
	<g>
		<rect x="316.386" y="165.684" width="15.042" height="15.173"/>
	</g>
</g>
<g>
	<g>
		<rect x="346.47" y="165.684" width="15.042" height="15.173"/>
	</g>
</g>
<g>
	<g>
		<rect x="376.555" y="165.684" width="15.042" height="15.173"/>
	</g>
</g>
<g>
	<g>
		<rect x="406.639" y="165.684" width="15.042" height="15.173"/>
	</g>
</g>
<g>
	<g>
		<rect x="436.723" y="165.684" width="15.042" height="15.173"/>
	</g>
</g>
<g>
	<g>
		<rect x="316.386" y="128.079" width="37.605" height="15.172"/>
	</g>
</g>
<g>
	<g>
		<rect x="369.034" y="128.079" width="37.605" height="15.172"/>
	</g>
</g>
<g>
	<g>
		<rect x="316.386" y="97.994" width="135.379" height="15.172"/>
	</g>
</g>
<g>
</g>
<g>
</g>
<g>
</g>
<g>
</g>
<g>
</g>
<g>
</g>
<g>
</g>
<g>
</g>
<g>
</g>
<g>
</g>
<g>
</g>
<g>
</g>
<g>
</g>
<g>
</g>
<g>
</g>
</svg>
