<?xml version="1.0" encoding="iso-8859-1"?>
<!-- Generator: Adobe Illustrator 19.0.0, SVG Export Plug-In . SVG Version: 6.00 Build 0)  -->
<svg version="1.1" fill="#d4d4d4" id="Capa_1" xmlns="http://www.w3.org/2000/svg" xmlns:xlink="http://www.w3.org/1999/xlink" x="0px" y="0px"
	 viewBox="0 0 496 496" style="enable-background:new 0 0 496 496;" xml:space="preserve">
<g>
	<g>
		<g>
			<path d="M224,288c0-61.76-50.24-112-112-112S0,226.24,0,288s50.24,112,112,112S224,349.76,224,288z M16,288
				c0-52.936,43.064-96,96-96c52.936,0,96,43.064,96,96c0,52.936-43.064,96-96,96C59.064,384,16,340.936,16,288z"/>
			<path d="M120,368v-16.408c17.952-2.016,32-17.112,32-35.592c0-19.848-16.152-36-36-36h-8c-11.032,0-20-8.976-20-20
				s8.968-20,20-20h8c11.032,0,20,8.976,20,20v4h16v-4c0-18.48-14.048-33.576-32-35.592V208h-16v16.408
				C86.048,226.424,72,241.52,72,260c0,19.848,16.152,36,36,36h8c11.032,0,20,8.976,20,20s-8.968,20-20,20h-8
				c-11.032,0-20-8.976-20-20v-4H72v4c0,18.48,14.048,33.576,32,35.592V368H120z"/>
			<path d="M120,64h256v16h16V40c0-22.056-17.944-40-40-40H144c-22.056,0-40,17.944-40,40v120h16V64z M120,40
				c0-13.232,10.768-24,24-24h208c13.232,0,24,10.768,24,24v8H120V40z"/>
			<path d="M104,456c0,22.056,17.944,40,40,40h208c22.056,0,40-17.944,40-40v-40H104V456z M120,432h256v24c0,13.232-10.768,24-24,24
				H144c-13.232,0-24-10.768-24-24V432z"/>
			<rect x="216" y="448" width="64" height="16"/>
			<path d="M472,96H216c-13.232,0-24,10.768-24,24v72h8h8h272v88c0,4.408-3.584,8-8,8H240v16h232c13.232,0,24-10.768,24-24V120
				C496,106.768,485.232,96,472,96z M480,176H208v-32h272V176z M480,128H208v-8c0-4.408,3.584-8,8-8h256c4.416,0,8,3.592,8,8V128z"
				/>
			<path d="M408,260.944c5.872,6.72,14.392,11.056,24,11.056c17.648,0,32-14.352,32-32s-14.352-32-32-32
				c-9.608,0-18.128,4.336-24,11.056c-5.872-6.72-14.392-11.056-24-11.056c-17.648,0-32,14.352-32,32s14.352,32,32,32
				C393.608,272,402.128,267.664,408,260.944z M432,224c8.824,0,16,7.176,16,16c0,8.824-7.176,16-16,16c-8.824,0-16-7.176-16-16
				C416,231.176,423.176,224,432,224z M368,240c0-8.824,7.176-16,16-16c8.824,0,16,7.176,16,16c0,8.824-7.176,16-16,16
				C375.176,256,368,248.824,368,240z"/>
			<rect x="376" y="320" width="16" height="80"/>
			<rect x="240" y="320" width="16" height="16"/>
			<rect x="272" y="320" width="16" height="16"/>
			<rect x="304" y="320" width="16" height="16"/>
		</g>
	</g>
</g>
<g>
</g>
<g>
</g>
<g>
</g>
<g>
</g>
<g>
</g>
<g>
</g>
<g>
</g>
<g>
</g>
<g>
</g>
<g>
</g>
<g>
</g>
<g>
</g>
<g>
</g>
<g>
</g>
<g>
</g>
</svg>
