<svg height="512" fill="#fdfdfd" viewBox="0 0 512 512" width="512" xmlns="http://www.w3.org/2000/svg" xmlns:xlink="http://www.w3.org/1999/xlink"><linearGradient id="New_Gradient_Swatch_23" gradientUnits="userSpaceOnUse" x1="45.029" x2="402.971" y1="386.971" y2="29.029"><stop offset="0" stop-color="#ed9595"/><stop offset="1" stop-color="#f5c2c2"/></linearGradient><linearGradient id="New_Gradient_Swatch_7" gradientUnits="userSpaceOnUse" x1="100" x2="348" y1="272" y2="24"><stop offset="0" stop-color="#816a6a"/><stop offset="1" stop-color="#9d8b8b"/></linearGradient><linearGradient id="New_Gradient_Swatch_8" gradientUnits="userSpaceOnUse" x1="68.929" x2="163.071" y1="276.071" y2="181.929"><stop offset="0" stop-color="#f7d1d1"/><stop offset="1" stop-color="#fcf0f0"/></linearGradient><linearGradient id="New_Gradient_Swatch_16" gradientUnits="userSpaceOnUse" x1="289.898" x2="478.102" y1="431.164" y2="242.96"><stop offset="0" stop-color="#b8e1e3"/><stop offset="1" stop-color="#edf7f8"/></linearGradient><linearGradient id="New_Gradient_Swatch_10" gradientUnits="userSpaceOnUse" x1="321.136" x2="446.864" y1="405.958" y2="280.23"><stop offset="0" stop-color="#72c2c8"/><stop offset="1" stop-color="#b8e1e3"/></linearGradient><g id="_04-security" data-name="04-security"><g id="gradient-2" data-name="gradient"><rect fill="url(#New_Gradient_Swatch_23)" height="308" rx="24" width="436" x="6" y="54"/><path d="m6 118h436v60h-436z" fill="url(#New_Gradient_Swatch_7)"/><rect fill="url(#New_Gradient_Swatch_8)" height="44" rx="10" width="156" x="38" y="207"/><path d="m112 298h-63a10 10 0 0 1 0-20h63a10 10 0 0 1 0 20z" fill="#f2b3b3"/><path d="m506.347 328.917c-1.114-29.639-3.358-57.449-3.38-57.727a10 10 0 0 0 -7.151-8.785l-109-32a9.992 9.992 0 0 0 -5.632 0l-109 32a10 10 0 0 0 -7.151 8.785c-.022.278-2.266 28.088-3.38 57.727-2.067 55.028 1.267 69.284 4.4 75.555 1.785 3.57 6.526 13.053 60.4 57.92 25.953 21.615 51.141 41.294 51.393 41.49a10 10 0 0 0 12.306 0c.252-.2 25.44-19.875 51.393-41.49 53.872-44.867 58.613-54.35 60.4-57.92 3.135-6.272 6.469-20.527 4.402-75.555z" fill="url(#New_Gradient_Swatch_16)"/><path d="m465.016 301.953a10 10 0 0 0 -7.165-9.006l-71.034-20.854a10 10 0 0 0 -5.634 0l-71.034 20.854a10 10 0 0 0 -7.165 9.006c-1.709 28.945-2.9 65.572-1.106 81.565a9.992 9.992 0 0 0 2.621 5.7c12.194 13.09 45.82 41.377 73.222 63.484a10 10 0 0 0 12.558 0c27.4-22.107 61.028-50.394 73.222-63.484a9.992 9.992 0 0 0 2.621-5.7c1.79-15.993.603-52.618-1.106-81.565z" fill="url(#New_Gradient_Swatch_10)"/><path d="m383.994 378a9.953 9.953 0 0 1 -5.541-1.68l-24-16a10 10 0 0 1 11.094-16.64l16.372 10.914 26.272-32.841a10 10 0 0 1 15.618 12.494l-32 40a9.99 9.99 0 0 1 -7.815 3.753z" fill="#edf7f8"/></g></g></svg>